# xmcd
#
# Track frame offsets: 
#        182
#        12767
#        23565
#        34312
#        47415
#        59067
#        71915
#        87175
#        97875
#        116737
#        131772
#        143747
#        160007
#        183870
#        197572
#        207557
#        222615
#        242275
#
# Disc length: 3464 seconds
#
# Revision: 5
# Processed by: cddbd v1.5.2PL0 Copyright (c) Steve Scherf et al.
# Submitted via: ExactAudioCopy v1.3
#
DISCID=fc0d8612
DTITLE=Various Artist - Hillbilly Fever Vol. 5 Legends Of Country Rock
DYEAR=1995
DGENRE=Oldies
TTITLE0=International Submarine Band - Luxury Liner
TTITLE1=Youngbloods - Grizzly Bear
TTITLE2=Hearts And Flowers - Rock And Roll Gypsies
TTITLE3=Everly Brothers - Bowling Green
TTITLE4=Byrds - You Ain't Going Nowhere
TTITLE5=Lovin' Spoonful - Never Going Back
TTITLE6=Bob Dylan - Tonight I'll Be Staying Here With You
TTITLE7=Linda Ronstadt - Silver Threads And Golden Needles
TTITLE8=Flying Burrito Bros. - Sin City
TTITLE9=Poco - Pickin' Up The Pieces
TTITLE10=Delaney And Bonnie And Friends - Never Ending Song Of Love
TTITLE11=Nitty Gritty Dirt Band - Mr. Bojangles
TTITLE12=Seatrain - Orange Blossom Special
TTITLE13=New Riders Of The Purple Sage - Glendale Train
TTITLE14=Commander Cody And His Lost Planet Airmen - Lost In The Ozone
TTITLE15=Michael Nesmith - Some Of Shelley's Blues
TTITLE16=Pure Prairie League - Amie
TTITLE17=Marshall Tucker Band - Fire On The Mountain
EXTD=
EXTT0=
EXTT1=
EXTT2=
EXTT3=
EXTT4=
EXTT5=
EXTT6=
EXTT7=
EXTT8=
EXTT9=
EXTT10=
EXTT11=
EXTT12=
EXTT13=
EXTT14=
EXTT15=
EXTT16=
EXTT17=
PLAYORDER=
